<svg xmlns="http://www.w3.org/2000/svg" viewBox="0 0 1600 900">
  <rect width="100%" height="100%" fill="#071018"/>
  <g fill="#071b1b">
    <ellipse cx="800" cy="780" rx="1000" ry="200" fill="#001217"/>
    <rect x="0" y="400" width="1600" height="500" fill="#001218"/>
  </g>
  <g transform="translate(200,120) scale(1.6)" fill="#071b1b">
    <path d="M320 120c-18-4-45-6-74 0-30 6-52 18-72 40-16 18-30 40-50 60-12 12-24 34-28 54-4 22-2 40 8 56 14 22 36 34 64 36 28 2 56-6 78-18 20-10 36-26 50-44 18-24 32-50 36-78 4-26-2-50-12-74-6-14-18-26-40-36z"/>
  </g>
  <text x="50%" y="60%" text-anchor="middle" font-family="Segoe UI, Tahoma, Roboto" font-size="120" fill="#00ff88" opacity="0.06">LOCAL WARFARE</text>
</svg>
